<svg width="14" height="15" viewBox="0 0 14 15" fill="none" xmlns="http://www.w3.org/2000/svg">
<path d="M13.6111 0.399902H5.05557C4.84061 0.399902 4.66667 0.573845 4.66667 0.788803C4.66667 1.00376 4.84061 1.1777 5.05557 1.1777H12.6723L0.113941 13.7361C-0.0379804 13.888 -0.0379804 14.1341 0.113941 14.286C0.189884 14.3619 0.289415 14.3999 0.38891 14.3999C0.488405 14.3999 0.5879 14.3619 0.663879 14.286L13.2222 1.7276V9.34437C13.2222 9.55933 13.3961 9.73327 13.6111 9.73327C13.8261 9.73327 14 9.55933 14 9.34437V0.788803C14 0.573845 13.826 0.399902 13.6111 0.399902Z" fill="#405FF2"/>
</svg>
