<svg width="27" height="35" viewBox="0 0 27 35" fill="none" xmlns="http://www.w3.org/2000/svg">
<mask id="mask0_5_30" style="mask-type:luminance" maskUnits="userSpaceOnUse" x="0" y="4" width="27" height="26">
<path d="M26.1087 4.71143H0.851562V29.9686H26.1087V4.71143Z" fill="white"/>
</mask>
<g mask="url(#mask0_5_30)">
<path d="M22.5087 14.3384H20.4951C19.8222 13.3504 18.9269 12.5245 17.8839 11.9354C16.7159 11.2758 15.3896 10.9272 14.0484 10.9272H13.4801C13.0679 10.9272 12.7338 11.2614 12.7338 11.6736V14.3384H4.45152C2.63305 14.3384 1.12616 15.694 0.885862 17.4475C0.883165 17.4645 0.880853 17.4814 0.879311 17.4988C0.861775 17.6431 0.851562 17.7895 0.851562 17.9385V20.7922C0.851562 21.2043 1.1857 21.5384 1.59787 21.5384H4.20911C4.54113 22.8211 5.70829 23.7709 7.0932 23.7709C8.47811 23.7709 9.64528 22.8211 9.97727 21.5384H16.983C17.3152 22.8211 18.4822 23.7709 19.8671 23.7709C21.252 23.7709 22.4189 22.8211 22.7511 21.5384H25.3624C25.7746 21.5384 26.1087 21.2043 26.1087 20.7922V17.9385C26.1087 15.9534 24.4937 14.3384 22.5087 14.3384ZM14.2265 12.4226C15.8759 12.4698 17.4405 13.1733 18.5752 14.3384H14.2265V12.4226ZM2.34419 18.3089H3.49691C3.90908 18.3089 4.24322 17.9747 4.24322 17.5625C4.24322 17.1504 3.90908 16.8163 3.49691 16.8163H2.66927C3.04291 16.2249 3.70194 15.8312 4.45152 15.8312H12.7338V20.0458H9.97727C9.64506 18.7633 8.47811 17.8132 7.0932 17.8132C5.70829 17.8132 4.54132 18.7633 4.20911 20.0458H2.34419V18.3089ZM8.57928 20.7922C8.57928 21.6117 7.91272 22.2783 7.0932 22.2783C6.27366 22.2783 5.60713 21.6117 5.60713 20.7922C5.60713 19.9727 6.27366 19.3061 7.0932 19.3061C7.91272 19.3061 8.57928 19.9727 8.57928 20.7922ZM21.3532 20.7922C21.3532 21.6117 20.6866 22.2783 19.8671 22.2783C19.0476 22.2783 18.381 21.6117 18.381 20.7922C18.381 19.9727 19.0476 19.3061 19.8671 19.3061C20.6866 19.3061 21.3532 19.9727 21.3532 20.7922ZM22.7511 20.0458C22.4192 18.7633 21.252 17.8132 19.8671 17.8132C18.4822 17.8132 17.315 18.7633 16.983 20.0458H14.2265V15.8312H22.5087C23.2451 15.8312 23.8942 16.2112 24.2712 16.7851H23.1161C22.704 16.7851 22.3698 17.1192 22.3698 17.5313C22.3698 17.9435 22.704 18.2778 23.1161 18.2778H24.6161V20.0458H22.7511Z" fill="white"/>
</g>
</svg>
