<svg width="27" height="35" viewBox="0 0 27 35" fill="none" xmlns="http://www.w3.org/2000/svg">
<mask id="mask0_5_18" style="mask-type:luminance" maskUnits="userSpaceOnUse" x="1" y="4" width="26" height="26">
<path d="M26.3275 4.71143H1.07031V29.9686H26.3275V4.71143Z" fill="white"/>
</mask>
<g mask="url(#mask0_5_18)">
<path d="M23.9199 16.2904L19.5599 15.5634C19.3049 15.1493 18.7982 14.4003 18.0613 13.6499C16.5906 12.152 14.8973 11.3604 13.1645 11.3604H6.06417C4.91083 11.3604 3.8415 11.9839 3.27346 12.9877L1.31687 16.4456C1.31371 16.4512 1.31134 16.457 1.30833 16.4626C1.15699 16.7335 1.07031 17.0452 1.07031 17.3769V21.0206C1.07031 21.4292 1.40161 21.7604 1.81027 21.7604H4.18015C4.52798 22.6706 5.41454 23.3194 6.45112 23.3194C7.4877 23.3194 8.37423 22.6706 8.72211 21.7604H17.9124C18.2602 22.6706 19.1467 23.3194 20.1833 23.3194C21.2199 23.3194 22.1064 22.6706 22.4542 21.7604H25.5875C25.9961 21.7604 26.3275 21.4292 26.3275 21.0206V19.0616C26.3275 17.6735 25.2932 16.4842 23.9199 16.2904ZM17.7085 15.4962H12.3781V12.8403H13.1645C15.2619 12.8403 16.8458 14.3909 17.7085 15.4962ZM7.43935 12.8403H10.8982V15.4962H7.43935V12.8403ZM4.56147 13.7166C4.85005 13.2066 5.37897 12.8792 5.95944 12.8439V15.4962H3.55444L4.56147 13.7166ZM6.45112 21.8395C5.92807 21.8395 5.50255 21.4211 5.50255 20.9067C5.50255 20.3925 5.92807 19.974 6.45112 19.974C6.97417 19.974 7.39969 20.3925 7.39969 20.9067C7.39969 21.4211 6.97417 21.8395 6.45112 21.8395ZM20.1833 21.8395C19.6602 21.8395 19.2347 21.4211 19.2347 20.9067C19.2347 20.3925 19.6602 19.974 20.1833 19.974C20.7063 19.974 21.1318 20.3925 21.1318 20.9067C21.1318 21.4211 20.7063 21.8395 20.1833 21.8395ZM22.5283 20.2805C22.25 19.2529 21.3043 18.4941 20.1833 18.4941C19.0622 18.4941 18.1166 19.2529 17.8382 20.2805H8.7961C8.51783 19.2529 7.5722 18.4941 6.45112 18.4941C5.33004 18.4941 4.38442 19.2529 4.10605 20.2805H2.55023V17.3769C2.55023 17.1559 2.72998 16.9761 2.95098 16.9761H19.0348L23.6862 17.7518C23.6934 17.753 23.7005 17.7541 23.7077 17.7551C23.8335 17.7723 23.9533 17.8075 24.0648 17.8574C23.7552 17.9459 23.5284 18.2304 23.5284 18.5684C23.5284 18.977 23.8597 19.3083 24.2683 19.3083H24.8475V20.2806L22.5283 20.2805Z" fill="white"/>
</g>
</svg>
