<svg width="27" height="35" viewBox="0 0 27 35" fill="none" xmlns="http://www.w3.org/2000/svg">
<path d="M23.6935 16.3811L20.4541 15.0859L18.5715 10.6928C18.1864 9.79496 17.3073 9.21484 16.3307 9.21484H8.8784C7.79615 9.21484 6.83172 9.94203 6.53434 10.9828L5.41472 14.9023H3.58984C2.69365 14.9023 1.96484 15.6312 1.96484 16.5273V21.4023C1.96484 22.2985 2.69365 23.0273 3.58984 23.0273H5.33022C5.6934 24.4248 6.95522 25.4648 8.46484 25.4648C9.97445 25.4648 11.2363 24.4248 11.5995 23.0273H15.0802C15.4434 24.4248 16.7052 25.4648 18.2148 25.4648C19.7244 25.4648 20.9863 24.4248 21.3494 23.0273H23.0898C23.986 23.0273 24.7148 22.2985 24.7148 21.4023V17.8899C24.7148 17.2212 24.3143 16.6289 23.6935 16.3811ZM8.46484 23.8398C7.56865 23.8398 6.83984 23.111 6.83984 22.2148C6.83984 21.3187 7.56865 20.5898 8.46484 20.5898C9.361 20.5898 10.0898 21.3187 10.0898 22.2148C10.0898 23.111 9.361 23.8398 8.46484 23.8398ZM18.2148 23.8398C17.3187 23.8398 16.5898 23.111 16.5898 22.2148C16.5898 21.3187 17.3187 20.5898 18.2148 20.5898C19.111 20.5898 19.8398 21.3187 19.8398 22.2148C19.8398 23.111 19.111 23.8398 18.2148 23.8398ZM23.0898 21.4023H21.3494C20.9863 20.0048 19.7244 18.9648 18.2148 18.9648C16.7052 18.9648 15.4434 20.0048 15.0802 21.4023H11.5995C11.2363 20.0048 9.97445 18.9648 8.46484 18.9648C6.95522 18.9648 5.6934 20.0048 5.33022 21.4023H3.58984V16.5273H6.02734C6.38972 16.5273 6.70903 16.2868 6.80815 15.9383L8.09595 11.4297C8.1959 11.082 8.51684 10.8398 8.8784 10.8398H16.3307C16.6557 10.8398 16.949 11.0332 17.0773 11.3322L19.0923 16.0349C19.1768 16.2332 19.3369 16.3892 19.5368 16.4697L23.0898 17.8899V21.4023Z" fill="white"/>
<path d="M12.0766 18.8285C11.7037 18.5798 11.603 18.0753 11.8516 17.7015L12.634 16.5275H11.7151C11.4153 16.5275 11.1399 16.3625 10.9985 16.0985C10.8571 15.8344 10.8725 15.5135 11.0391 15.2648L12.6641 12.8273C12.9127 12.4536 13.4173 12.3528 13.791 12.6023C14.164 12.8509 14.2647 13.3555 14.0161 13.7292L13.2336 14.9025H14.1526C14.4524 14.9025 14.7279 15.0674 14.8692 15.3315C15.0106 15.5955 14.9951 15.9165 14.8286 16.1651L13.2036 18.6026C12.9541 18.9772 12.4488 19.0771 12.0766 18.8285Z" fill="white"/>
</svg>
