<svg width="27" height="27" viewBox="0 0 27 27" fill="none" xmlns="http://www.w3.org/2000/svg">
<mask id="mask0_5_10" style="mask-type:luminance" maskUnits="userSpaceOnUse" x="0" y="0" width="27" height="27">
<path d="M26.1406 0.339844H0.140625V26.3398H26.1406V0.339844Z" fill="white"/>
</mask>
<g mask="url(#mask0_5_10)">
<path d="M25.2928 16.7314H24.445V12.4923C24.445 11.0897 23.3039 9.9488 21.9015 9.9488H19.1213L18.0054 6.60092C17.6585 5.56072 16.6888 4.86182 15.5923 4.86182C15.4603 4.86182 6.29445 4.86182 6.07538 4.86182C4.97007 4.86182 4.02772 5.57067 3.67774 6.55745H2.68411C1.28163 6.55745 0.140625 7.69845 0.140625 9.10089V12.4923C0.140625 13.8948 1.28163 15.0357 2.68411 15.0357H3.53195V16.7314H2.68411C2.2159 16.7314 1.83626 17.111 1.83626 17.5792C1.83626 18.0475 2.21585 18.4271 2.68411 18.4271C3.47812 18.4271 4.43093 18.4271 5.22759 18.4271C5.22759 20.297 6.74894 21.8184 8.61892 21.8184C10.4889 21.8184 12.0102 20.297 12.0102 18.4271H15.9667C15.9667 20.297 17.4881 21.8184 19.3581 21.8184C21.2281 21.8184 22.7494 20.297 22.7494 18.4271C23.5463 18.4271 24.4994 18.4271 25.2929 18.4271C25.7611 18.4271 26.1407 18.0475 26.1407 17.5792C26.1407 17.111 25.761 16.7314 25.2928 16.7314ZM3.53195 13.34H2.68411C2.21661 13.34 1.83626 12.9597 1.83626 12.4922V9.10089C1.83626 8.63335 2.21661 8.25307 2.68411 8.25307H3.53195C3.53195 8.79325 3.53195 12.8162 3.53195 13.34ZM12.0102 6.55745H13.4233H15.5923C15.9579 6.55745 16.2811 6.79044 16.3967 7.13711L17.3338 9.94872H12.0102V6.55745ZM5.22759 7.40524C5.22759 6.93775 5.60794 6.5574 6.07543 6.5574H10.3146V9.94872H5.22759V7.40524ZM8.61892 20.1227C7.68393 20.1227 6.92328 19.362 6.92328 18.427C6.92328 17.492 7.68393 16.7314 8.61892 16.7314C9.55393 16.7314 10.3146 17.492 10.3146 18.427C10.3146 19.362 9.55393 20.1227 8.61892 20.1227ZM19.358 20.1227C18.4231 20.1227 17.6624 19.362 17.6624 18.427C17.6624 17.492 18.4231 16.7314 19.358 16.7314C20.293 16.7314 21.0536 17.492 21.0536 18.427C21.0536 19.362 20.293 20.1227 19.358 20.1227ZM22.7493 16.7314H22.2931C21.7057 15.7187 20.6105 15.0357 19.358 15.0357C18.1056 15.0357 17.0103 15.7187 16.423 16.7314H11.5539C10.9666 15.7187 9.87135 15.0357 8.61892 15.0357C7.36644 15.0357 6.27119 15.7187 5.68386 16.7314H5.22764V14.1879V11.6444C6.61021 11.6444 20.9937 11.6444 21.9016 11.6444C22.369 11.6444 22.7494 12.0247 22.7494 12.4923L22.7493 16.7314Z" fill="white"/>
<path d="M14.5552 13.3398H12.8595C12.3913 13.3398 12.0117 13.7194 12.0117 14.1877C12.0117 14.6559 12.3913 15.0355 12.8595 15.0355H14.5552C15.0234 15.0355 15.403 14.656 15.403 14.1877C15.403 13.7194 15.0234 13.3398 14.5552 13.3398Z" fill="white"/>
</g>
</svg>
