<svg width="18" height="19" viewBox="0 0 18 19" fill="none" xmlns="http://www.w3.org/2000/svg">
<path d="M10.9486 3.39955C10.9486 3.23955 10.8986 3.10955 10.7986 3.00955C10.6986 2.90955 10.5686 2.85955 10.4086 2.85955H4.76859C4.60859 2.85955 4.47859 2.90955 4.37859 3.00955C4.27859 3.10955 4.22859 3.23955 4.22859 3.39955V7.89955C4.22859 8.05955 4.27859 8.19955 4.37859 8.31955C4.47859 8.43955 4.60859 8.49955 4.76859 8.49955H10.4086C10.5686 8.49955 10.6986 8.43955 10.7986 8.31955C10.8986 8.19955 10.9486 8.05955 10.9486 7.89955V3.39955ZM9.80859 7.35955H5.30859V3.99955H9.80859V7.35955ZM17.4286 3.99955L15.1486 2.91955C15.0286 2.83955 14.8886 2.81955 14.7286 2.85955C14.5686 2.89955 14.4586 2.98955 14.3986 3.12955C14.3386 3.26955 14.3286 3.41955 14.3686 3.57955C14.4086 3.73955 14.5086 3.83955 14.6686 3.87955L15.5086 4.35955L15.4486 4.53955C15.4486 4.89955 15.5586 5.21955 15.7786 5.49955C15.9986 5.77955 16.2686 5.97955 16.5886 6.09955V12.9396C16.5886 13.0996 16.5286 13.2396 16.4086 13.3596C16.2886 13.4796 16.1586 13.5396 16.0186 13.5396C15.8786 13.5396 15.7486 13.4796 15.6286 13.3596C15.5086 13.2396 15.4486 13.0996 15.4486 12.9396V8.43955C15.4486 7.79955 15.2186 7.21955 14.7586 6.69955C14.2986 6.17955 13.7886 5.85955 13.2286 5.73955V2.25955C13.2286 1.65955 13.0086 1.13955 12.5686 0.699551C12.1286 0.259552 11.6086 0.0395508 11.0086 0.0395508H4.22859C3.62859 0.0395508 3.09859 0.259552 2.63859 0.699551C2.17859 1.13955 1.94859 1.65955 1.94859 2.25955V14.8596L1.16859 15.2796C0.928594 15.3996 0.808594 15.5596 0.808594 15.7596V17.4396C0.808594 17.5996 0.868594 17.7396 0.988594 17.8596C1.10859 17.9796 1.24859 18.0396 1.40859 18.0396H13.7686C13.9286 18.0396 14.0586 17.9796 14.1586 17.8596C14.2586 17.7396 14.3086 17.5996 14.3086 17.4396V15.7596C14.3086 15.5596 14.2086 15.3996 14.0086 15.2796L13.2286 14.8596V6.87955C13.5086 6.99955 13.7586 7.20955 13.9786 7.50955C14.1986 7.80955 14.3086 8.11955 14.3086 8.43955V12.9396C14.3086 13.4196 14.4786 13.8296 14.8186 14.1696C15.1586 14.5096 15.5586 14.6796 16.0186 14.6796C16.4786 14.6796 16.8786 14.5096 17.2186 14.1696C17.5586 13.8296 17.7286 13.4196 17.7286 12.9396V4.53955C17.7286 4.29955 17.6286 4.11955 17.4286 3.99955ZM13.2286 16.8996H1.94859V16.1196L2.78859 15.6996C2.98859 15.6196 3.08859 15.4596 3.08859 15.2196V2.25955C3.08859 1.97955 3.19859 1.72955 3.41859 1.50955C3.63859 1.28955 3.90859 1.17955 4.22859 1.17955H11.0086C11.2886 1.17955 11.5386 1.28955 11.7586 1.50955C11.9786 1.72955 12.0886 1.97955 12.0886 2.25955V15.2196C12.0886 15.4596 12.1886 15.6196 12.3886 15.6996L13.2286 16.1196V16.8996Z" fill="#050B20"/>
</svg>
