<svg width="19" height="19" viewBox="0 0 19 19" fill="none" xmlns="http://www.w3.org/2000/svg">
<g clip-path="url(#clip0_5_129)">
<path d="M18.3789 10.6598C18.3789 12.6998 17.7789 14.5198 16.5789 16.1198C16.4589 16.2798 16.2989 16.3698 16.0989 16.3898C15.8989 16.4098 15.7189 16.3598 15.5589 16.2398C15.3989 16.1198 15.3089 15.9698 15.2889 15.7898C15.2689 15.6098 15.3189 15.4398 15.4389 15.2798C16.4789 13.9198 16.9989 12.3798 16.9989 10.6598C16.9989 9.29976 16.6589 8.03976 15.9789 6.87976C15.2989 5.71976 14.3689 4.79976 13.1889 4.11976C12.0089 3.43976 10.7389 3.09976 9.37891 3.09976C8.01891 3.09976 6.74891 3.43976 5.56891 4.11976C4.38891 4.79976 3.45891 5.71976 2.77891 6.87976C2.09891 8.03976 1.75891 9.29976 1.75891 10.6598C1.75891 12.3798 2.27891 13.9198 3.31891 15.2798C3.43891 15.4398 3.48891 15.6098 3.46891 15.7898C3.44891 15.9698 3.35891 16.1198 3.19891 16.2398C3.03891 16.3598 2.85891 16.4098 2.65891 16.3898C2.45891 16.3698 2.29891 16.2798 2.17891 16.1198C0.978906 14.5198 0.378906 12.6998 0.378906 10.6598C0.378906 9.05976 0.778906 7.56976 1.57891 6.18976C2.37891 4.80976 3.46891 3.71976 4.84891 2.91976C6.22891 2.11976 7.73891 1.71976 9.37891 1.71976C11.0189 1.71976 12.5289 2.11976 13.9089 2.91976C15.2889 3.71976 16.3789 4.80976 17.1789 6.18976C17.9789 7.56976 18.3789 9.05976 18.3789 10.6598ZM13.8189 6.45976C13.9789 6.57976 14.0589 6.73976 14.0589 6.93976C14.0589 7.13976 13.9789 7.29976 13.8189 7.41976L11.5389 9.75976C11.7389 10.1198 11.8389 10.4998 11.8389 10.8998C11.8389 11.5798 11.5989 12.1598 11.1189 12.6398C10.6389 13.1198 10.0589 13.3598 9.37891 13.3598C8.69891 13.3598 8.11891 13.1198 7.63891 12.6398C7.15891 12.1598 6.91891 11.5798 6.91891 10.8998C6.91891 10.2198 7.15891 9.63976 7.63891 9.15976C8.11891 8.67976 8.69891 8.43976 9.37891 8.43976C9.77891 8.43976 10.1589 8.53976 10.5189 8.73976L12.8589 6.45976C12.9789 6.29976 13.1389 6.21976 13.3389 6.21976C13.5389 6.21976 13.6989 6.29976 13.8189 6.45976ZM10.4589 10.8998C10.4589 10.6198 10.3489 10.3798 10.1289 10.1798C9.90891 9.97976 9.65891 9.87976 9.37891 9.87976C9.09891 9.87976 8.84891 9.97976 8.62891 10.1798C8.40891 10.3798 8.29891 10.6198 8.29891 10.8998C8.29891 11.1798 8.40891 11.4298 8.62891 11.6498C8.84891 11.8698 9.09891 11.9798 9.37891 11.9798C9.65891 11.9798 9.90891 11.8698 10.1289 11.6498C10.3489 11.4298 10.4589 11.1798 10.4589 10.8998Z" fill="#050B20"/>
</g>
<defs>
<clipPath id="clip0_5_129">
<rect width="18" height="18" fill="white" transform="matrix(1 0 0 -1 0.378906 18.0396)"/>
</clipPath>
</defs>
</svg>
