<svg width="19" height="19" viewBox="0 0 19 19" fill="none" xmlns="http://www.w3.org/2000/svg">
<path d="M3.89156 1.71938C3.33156 1.71938 2.85156 1.91938 2.45156 2.31938C2.05156 2.71938 1.85156 3.20938 1.85156 3.78938C1.85156 4.36938 2.05156 4.85938 2.45156 5.25938C2.85156 5.65938 3.33156 5.85938 3.89156 5.85938C4.45156 5.85938 4.93156 5.65938 5.33156 5.25938C5.73156 4.85938 5.93156 4.36938 5.93156 3.78938C5.93156 3.20938 5.73156 2.71938 5.33156 2.31938C4.93156 1.91938 4.45156 1.71938 3.89156 1.71938ZM3.89156 2.85938C4.13156 2.85938 4.35156 2.94938 4.55156 3.12938C4.75156 3.30938 4.85156 3.52938 4.85156 3.78938C4.85156 4.04938 4.75156 4.26937 4.55156 4.44938C4.35156 4.62938 4.13156 4.71938 3.89156 4.71938C3.65156 4.71938 3.43156 4.62938 3.23156 4.44938C3.03156 4.26937 2.93156 4.04938 2.93156 3.78938C2.93156 3.52938 3.03156 3.30938 3.23156 3.12938C3.43156 2.94938 3.65156 2.85938 3.89156 2.85938ZM3.89156 12.2194C3.33156 12.2194 2.85156 12.4194 2.45156 12.8194C2.05156 13.2194 1.85156 13.7094 1.85156 14.2894C1.85156 14.8694 2.05156 15.3594 2.45156 15.7594C2.85156 16.1594 3.33156 16.3594 3.89156 16.3594C4.45156 16.3594 4.93156 16.1594 5.33156 15.7594C5.73156 15.3594 5.93156 14.8694 5.93156 14.2894C5.93156 13.7094 5.73156 13.2194 5.33156 12.8194C4.93156 12.4194 4.45156 12.2194 3.89156 12.2194ZM3.89156 13.3594C4.13156 13.3594 4.35156 13.4494 4.55156 13.6294C4.75156 13.8094 4.85156 14.0294 4.85156 14.2894C4.85156 14.5494 4.75156 14.7694 4.55156 14.9494C4.35156 15.1294 4.13156 15.2194 3.89156 15.2194C3.65156 15.2194 3.43156 15.1294 3.23156 14.9494C3.03156 14.7694 2.93156 14.5494 2.93156 14.2894C2.93156 14.0294 3.03156 13.8094 3.23156 13.6294C3.43156 13.4494 3.65156 13.3594 3.89156 13.3594ZM9.89156 1.71938C9.33156 1.71938 8.85156 1.91938 8.45156 2.31938C8.05156 2.71938 7.85156 3.20938 7.85156 3.78938C7.85156 4.36938 8.05156 4.85938 8.45156 5.25938C8.85156 5.65938 9.33156 5.85938 9.89156 5.85938C10.4516 5.85938 10.9316 5.65938 11.3316 5.25938C11.7316 4.85938 11.9316 4.36938 11.9316 3.78938C11.9316 3.20938 11.7316 2.71938 11.3316 2.31938C10.9316 1.91938 10.4516 1.71938 9.89156 1.71938ZM9.89156 2.85938C10.1316 2.85938 10.3516 2.94938 10.5516 3.12938C10.7516 3.30938 10.8516 3.52938 10.8516 3.78938C10.8516 4.04938 10.7516 4.26937 10.5516 4.44938C10.3516 4.62938 10.1316 4.71938 9.89156 4.71938C9.65156 4.71938 9.43156 4.62938 9.23156 4.44938C9.03156 4.26937 8.93156 4.04938 8.93156 3.78938C8.93156 3.52938 9.03156 3.30938 9.23156 3.12938C9.43156 2.94938 9.65156 2.85938 9.89156 2.85938ZM9.89156 12.2194C9.33156 12.2194 8.85156 12.4194 8.45156 12.8194C8.05156 13.2194 7.85156 13.7094 7.85156 14.2894C7.85156 14.8694 8.05156 15.3594 8.45156 15.7594C8.85156 16.1594 9.33156 16.3594 9.89156 16.3594C10.4516 16.3594 10.9316 16.1594 11.3316 15.7594C11.7316 15.3594 11.9316 14.8694 11.9316 14.2894C11.9316 13.7094 11.7316 13.2194 11.3316 12.8194C10.9316 12.4194 10.4516 12.2194 9.89156 12.2194ZM9.89156 13.3594C10.1316 13.3594 10.3516 13.4494 10.5516 13.6294C10.7516 13.8094 10.8516 14.0294 10.8516 14.2894C10.8516 14.5494 10.7516 14.7694 10.5516 14.9494C10.3516 15.1294 10.1316 15.2194 9.89156 15.2194C9.65156 15.2194 9.43156 15.1294 9.23156 14.9494C9.03156 14.7694 8.93156 14.5494 8.93156 14.2894C8.93156 14.0294 9.03156 13.8094 9.23156 13.6294C9.43156 13.4494 9.65156 13.3594 9.89156 13.3594ZM15.8916 1.71938C15.3316 1.71938 14.8516 1.91938 14.4516 2.31938C14.0516 2.71938 13.8516 3.20938 13.8516 3.78938C13.8516 4.36938 14.0516 4.85938 14.4516 5.25938C14.8516 5.65938 15.3316 5.85938 15.8916 5.85938C16.4516 5.85938 16.9316 5.65938 17.3316 5.25938C17.7316 4.85938 17.9316 4.36938 17.9316 3.78938C17.9316 3.20938 17.7316 2.71938 17.3316 2.31938C16.9316 1.91938 16.4516 1.71938 15.8916 1.71938ZM15.8916 2.85938C16.1316 2.85938 16.3516 2.94938 16.5516 3.12938C16.7516 3.30938 16.8516 3.52938 16.8516 3.78938C16.8516 4.04938 16.7516 4.26937 16.5516 4.44938C16.3516 4.62938 16.1316 4.71938 15.8916 4.71938C15.6516 4.71938 15.4316 4.62938 15.2316 4.44938C15.0316 4.26937 14.9316 4.04938 14.9316 3.78938C14.9316 3.52938 15.0316 3.30938 15.2316 3.12938C15.4316 2.94938 15.6516 2.85938 15.8916 2.85938ZM15.8916 12.2194C15.3316 12.2194 14.8516 12.4194 14.4516 12.8194C14.0516 13.2194 13.8516 13.7094 13.8516 14.2894C13.8516 14.8694 14.0516 15.3594 14.4516 15.7594C14.8516 16.1594 15.3316 16.3594 15.8916 16.3594C16.4516 16.3594 16.9316 16.1594 17.3316 15.7594C17.7316 15.3594 17.9316 14.8694 17.9316 14.2894C17.9316 13.7094 17.7316 13.2194 17.3316 12.8194C16.9316 12.4194 16.4516 12.2194 15.8916 12.2194ZM15.8916 13.3594C16.1316 13.3594 16.3516 13.4494 16.5516 13.6294C16.7516 13.8094 16.8516 14.0294 16.8516 14.2894C16.8516 14.5494 16.7516 14.7694 16.5516 14.9494C16.3516 15.1294 16.1316 15.2194 15.8916 15.2194C15.6516 15.2194 15.4316 15.1294 15.2316 14.9494C15.0316 14.7694 14.9316 14.5494 14.9316 14.2894C14.9316 14.0294 15.0316 13.8094 15.2316 13.6294C15.4316 13.4494 15.6516 13.3594 15.8916 13.3594ZM3.35156 5.25938V12.7594C3.35156 12.9194 3.40156 13.0594 3.50156 13.1794C3.60156 13.2994 3.73156 13.3594 3.89156 13.3594C4.05156 13.3594 4.18156 13.2994 4.28156 13.1794C4.38156 13.0594 4.43156 12.9394 4.43156 12.8194V5.25938C4.43156 5.13938 4.38156 5.01937 4.28156 4.89937C4.18156 4.77938 4.05156 4.71938 3.89156 4.71938C3.73156 4.71938 3.60156 4.77938 3.50156 4.89937C3.40156 5.01937 3.35156 5.13938 3.35156 5.25938ZM9.35156 5.25938V12.7594C9.35156 12.9194 9.40156 13.0594 9.50156 13.1794C9.60156 13.2994 9.73156 13.3594 9.89156 13.3594C10.0516 13.3594 10.1816 13.2994 10.2816 13.1794C10.3816 13.0594 10.4316 12.9394 10.4316 12.8194V5.25938C10.4316 5.13938 10.3816 5.01937 10.2816 4.89937C10.1816 4.77938 10.0516 4.71938 9.89156 4.71938C9.73156 4.71938 9.60156 4.77938 9.50156 4.89937C9.40156 5.01937 9.35156 5.13938 9.35156 5.25938ZM15.3516 5.25938V8.25938C15.3516 8.33938 15.3316 8.39937 15.2916 8.43938C15.2516 8.47938 15.2116 8.49938 15.1716 8.49938H3.89156C3.73156 8.49938 3.60156 8.54938 3.50156 8.64937C3.40156 8.74938 3.35156 8.87937 3.35156 9.03938C3.35156 9.19938 3.40156 9.32938 3.50156 9.42938C3.60156 9.52938 3.73156 9.57938 3.89156 9.57938H15.1716C15.5316 9.57938 15.8316 9.45938 16.0716 9.21938C16.3116 8.97938 16.4316 8.65938 16.4316 8.25938V5.31938C16.4316 5.15938 16.3816 5.01937 16.2816 4.89937C16.1816 4.77938 16.0516 4.71938 15.8916 4.71938C15.7316 4.71938 15.6016 4.77938 15.5016 4.89937C15.4016 5.01937 15.3516 5.13938 15.3516 5.25938Z" fill="#050B20"/>
</svg>
